<?xml version="1.0" encoding="UTF-8"?>
<!DOCTYPE svg PUBLIC "-//W3C//DTD SVG 1.1//EN" "http://www.w3.org/Graphics/SVG/1.1/DTD/svg11.dtd">
<!-- Creator: CorelDRAW -->
<svg xmlns="http://www.w3.org/2000/svg" xml:space="preserve" width="177.591mm" height="204.818mm" style="shape-rendering:geometricPrecision; text-rendering:geometricPrecision; image-rendering:optimizeQuality; fill-rule:evenodd; clip-rule:evenodd"
viewBox="0 0 159.994 184.522"
 xmlns:xlink="http://www.w3.org/1999/xlink">
 <defs>
  <style type="text/css">
   <![CDATA[
    .fil0 {fill:#3CB3E5}
    .fil1 {fill:#FEFEFF}
   ]]>
  </style>
 </defs>
 <g id="Capa_x0020_1">
  <metadata id="CorelCorpID_0Corel-Layer"/>
  <g id="_348817568">
   <path id="_285657240" class="fil0" d="M72.0296 0.446311c-7.54278,1.92894 -8.85874,1.08181 -17.7517,4.8505 -5.27537,2.23552 -10.3331,5.2224 -14.4545,8.37469 -7.81261,5.97547 -15.5404,14.8547 -20.2518,25.4409 -6.05169,13.598 -5.92268,22.6075 -5.92268,39.4657 0,10.0963 0.470636,36.4544 -0.750729,44.7289 -2.53624,17.1831 -4.8505,20.2558 -10.3848,35.0198 -1.92768,5.1424 -6.08664,15.9317 3.93878,13.9696 6.35998,-1.2447 11.6403,-3.76788 17.9488,-4.91077 8.32414,-1.50821 11.7471,-0.598655 15.3423,5.76799 9.2683,16.4124 14.1791,11.8491 28.9864,6.08493 11.6716,-4.54347 13.3846,-3.88058 26.5288,1.60137 9.37902,3.91175 15.6019,7.22575 22.7989,-4.02617 3.42806,-5.35979 4.04824,-10.1046 12.7205,-9.9838 14.1717,0.197299 33.7103,14.9248 28.2898,-3.78265 -1.71533,-5.92006 -4.23887,-10.8045 -6.29142,-16.5756 -7.87955,-22.1544 -6.40584,-38.4656 -6.40584,-61.8284 0,-21.7242 1.40758,-37.1322 -12.1245,-56.2796 -9.54362,-13.5039 -23.733,-23.4235 -41.1577,-26.9629 -4.29455,-0.872442 -16.7406,-2.05858 -21.0586,-0.954425z"/>
   <path id="_284212968" class="fil1" d="M57.7023 36.7706c-7.98054,2.11273 -11.5866,12.0627 -11.0545,22.2 0.436671,8.32099 5.55934,20.3633 14.7852,18.3583 7.48071,-1.62578 11.4286,-12.63 10.9143,-22.3118 -0.448023,-8.43586 -5.78979,-20.5909 -14.6449,-18.2465z"/>
   <path id="_284795160" class="fil1" d="M98.705 36.7518c-8.04072,2.08543 -11.5711,12.4133 -11.0885,22.2092 0.410185,8.32496 5.58429,20.4482 14.7684,18.3672 7.4235,-1.682 11.6016,-12.9636 10.9392,-22.2955 -0.611448,-8.61352 -5.81286,-20.5652 -14.6192,-18.2809z"/>
   <path id="_349613960" class="fil1" d="M47.3211 86.5266c0.698927,6.6698 7.48711,17.6508 11.0346,21.2982 4.73384,4.8669 11.5357,10.8363 21.7446,10.7862 9.88272,-0.0485591 17.5287,-6.22016 21.6401,-10.9083 6.8644,-7.82711 7.40702,-11.6615 10.9967,-21.4531 -1.75831,3.23598 -9.08217,9.34479 -12.7339,11.5143 -16.9404,10.0641 -36.0726,6.13808 -49.6954,-7.94297 -1.11217,-1.14965 -1.95245,-2.46183 -2.98661,-3.29418z"/>
   <path id="_349614056" class="fil0" d="M136.936 11.5236c-6.84548,3.16274 -2.2193,13.3421 4.56455,10.2998 2.60913,-1.17019 3.80797,-4.54609 2.72562,-7.36864 -0.960731,-2.50552 -3.95725,-4.47095 -7.29017,-2.9312z"/>
   <path id="_349613528" class="fil1" d="M137.387 12.6426c-2.7167,1.35254 -3.16715,3.77373 -2.12741,6.10151 0.844784,1.89101 3.41905,3.15679 5.77574,1.9593 4.85023,-2.46435 1.64804,-10.698 -3.64833,-8.06081z"/>
   <path id="_349613816" class="fil0" d="M137.902 20.0682c1.21073,-0.589556 0.0170272,0.772261 1.07037,-2.61886 1.53299,0.931452 -0.572619,0.0844153 1.7838,2.57913 0.862442,-1.91029 -0.373788,-1.27749 0.144326,-4.38077l-3.41382 -2.38732c-0.133425,1.16983 -0.278021,5.15753 -0.0136038,6.03664 0.238922,0.794243 0.00126127,0.27676 0.428924,0.77118z"/>
  </g>
 </g>
</svg>
