<?xml version="1.0" encoding="UTF-8"?>
<!DOCTYPE svg PUBLIC "-//W3C//DTD SVG 1.1//EN" "http://www.w3.org/Graphics/SVG/1.1/DTD/svg11.dtd">
<!-- Creator: CorelDRAW -->
<svg xmlns="http://www.w3.org/2000/svg" xml:space="preserve" width="159.535mm" height="182.136mm" style="shape-rendering:geometricPrecision; text-rendering:geometricPrecision; image-rendering:optimizeQuality; fill-rule:evenodd; clip-rule:evenodd"
viewBox="0 0 119.111 135.985"
 xmlns:xlink="http://www.w3.org/1999/xlink">
 <defs>
  <style type="text/css">
   <![CDATA[
    .fil0 {fill:maroon}
    .fil2 {fill:#C99393}
    .fil1 {fill:white}
   ]]>
  </style>
 </defs>
 <g id="Capa_x0020_1">
  <metadata id="CorelCorpID_0Corel-Layer"/>
  <g id="_284624072">
   <path id="_285657264" class="fil0" d="M6.50213 16.9226c-4.65918,0.0129165 -3.17536,-0.403546 -6.50213,1.28164 0.0666728,17.2173 -0.499859,51.188 3.50611,66.3696 4.71361,17.8639 13.23,25.2519 28.9381,35.5325 7.63795,4.99867 18.7589,11.2681 27.2217,15.879 2.38648,-1.08864 4.31701,-2.39163 6.60016,-3.71314 13.6205,-7.88314 32.5922,-18.2087 41.2964,-29.9685 6.12113,-8.27011 9.58184,-20.2386 10.1446,-30.6406 0.344339,-6.36512 0.970824,-12.6467 1.1085,-19.2373 0.191582,-11.4497 0.377638,-23.8541 0.258404,-35.376 -1.9801,-0.243621 -13.4822,-0.203826 -18.4076,-0.552346 -17.0098,-1.20325 -27.4165,-7.85387 -41.0004,-16.4974 -0.781035,0.255119 -9.15082,5.60619 -10.8009,6.56223 -14.5386,8.42324 -24.3162,10.3146 -42.3628,10.3603z"/>
   <path id="_285657096" class="fil1" d="M34.6993 74.1878c-1.94471,-1.06258 -1.27261,-12.8619 -1.27261,-15.54 0,-4.65679 0.426766,-11.8845 -0.0598039,-16.2669l-7.97811 -0.00798879 0.0745869 29.1002c-0.313056,2.78159 1.93724,7.44697 3.49894,9.1167 6.27381,6.70745 20.9863,5.03824 24.9129,1.69624l3.24561 -3.27264c0.64978,0.318357 2.71947,2.16362 4.44677,3.18857 13.9571,8.28221 30.9828,-1.8634 32.2286,-15.9018 1.68556,-18.9938 -17.1016,-27.878 -28.8413,-22.7407l-5.38235 2.77218 -0.116173 -4.20277 -8.38591 0.0220252c-0.401754,1.9698 -0.107289,22.4825 -0.133943,26.3957 -0.0344936,5.08072 -0.250863,7.30549 -5.51443,7.91861 -3.54389,0.412804 -9.46858,0.556079 -10.7228,-2.2774z"/>
   <path id="_349612832" class="fil0" d="M70.2903 51.0484c-17.4612,3.36037 -11.6748,28.7287 4.68807,25.2602 6.27015,-1.32905 11.6878,-7.54127 10.081,-15.0748 -1.30307,-6.10881 -7.01475,-11.6779 -14.7691,-10.1855z"/>
   <path id="_349613360" class="fil2" d="M25.4633 71.4731l-0.0745869 -29.1002 7.97811 0.00798879c0.486569,4.38241 0.0598039,11.6101 0.0598039,16.2669 0,2.67811 -0.672103,14.4774 1.27261,15.54l-1.05736 -31.8844c-0.254223,-0.152758 -0.058236,-0.165674 -0.578403,-0.247055 -0.266542,-0.0416612 -0.812019,-0.0313579 -1.09984,-0.0306112l-6.71387 0.0845916c-0.413998,1.10357 -0.491497,22.9769 -0.21062,27.5738 0.0106019,0.173066 0.0403172,0.711973 0.067942,0.857861l0.35621 0.931179z"/>
  </g>
 </g>
</svg>
