<?xml version="1.0" encoding="UTF-8"?>
<!DOCTYPE svg PUBLIC "-//W3C//DTD SVG 1.1//EN" "http://www.w3.org/Graphics/SVG/1.1/DTD/svg11.dtd">
<!-- Creator: CorelDRAW -->
<svg xmlns="http://www.w3.org/2000/svg" xml:space="preserve" width="82.5061mm" height="28.9719mm" style="shape-rendering:geometricPrecision; text-rendering:geometricPrecision; image-rendering:optimizeQuality; fill-rule:evenodd; clip-rule:evenodd"
viewBox="0 0 57.8252 20.3053"
 xmlns:xlink="http://www.w3.org/1999/xlink">
 <defs>
  <style type="text/css">
   <![CDATA[
    .str1 {stroke:#96989A;stroke-width:0.140172}
    .str0 {stroke:#FEFEFE;stroke-width:0.556273}
    .fil1 {fill:none}
    .fil0 {fill:#373435}
    .fil3 {fill:#96989A}
    .fil2 {fill:#FEFEFE}
    .fil4 {fill:#FEFEFE;fill-rule:nonzero}
   ]]>
  </style>
 </defs>
 <g id="Capa_x0020_1">
  <metadata id="CorelCorpID_0Corel-Layer"/>
  <rect class="fil0" width="57.8252" height="20.3053"/>
  <g id="_351950184">
   <ellipse id="_349447000" class="fil1 str0" cx="12.2122" cy="10.1633" rx="4.5672" ry="4.63362"/>
   <path id="_349446664" class="fil2" d="M12.4211 7.60265c-0.00490602,-0.221612 0.0340618,-0.384071 0.233667,-0.430328 0.445887,-0.103377 0.55382,0.526907 0.194559,0.641567 -0.273265,0.087187 -0.364728,-0.11445 -0.437897,-0.181523 0.006518,0.308028 0.103447,1.63139 -0.0144377,1.77598 -0.0591526,0.177107 -0.972023,1.71087 -1.1635,2.05941 -0.058662,0.106741 -0.119286,0.186779 -0.17914,0.304804 0.121389,-0.0497611 0.233036,-0.140803 0.414349,-0.0550876 0.10562,0.0499012 0.196171,0.174584 0.180401,0.339987 -0.0175916,0.184326 -0.235839,0.444415 -0.58655,0.190354 -0.0400892,-0.0290156 -0.000770946,-0.00679834 -0.0589423,-0.0395986 0.112418,0.430118 0.214463,0.875725 0.315808,1.31264l0.226168 0.958637c0.0353934,0.156432 0.0208155,0.18755 0.100293,0.266257l0.0302772 0.0253011c0.13863,0 0.145639,0.0227079 0.27705,0.0267028 0.115362,0.00343421 0.239624,-0.000841032 0.356037,-0.000841032 -0.0445046,-0.333469 -0.386594,-1.64779 -0.507072,-2.14386 -0.0475183,-0.19547 -0.17087,-0.525996 -0.0796177,-0.696234 0.214673,-0.400542 1.18754,-2.00516 1.28313,-2.25481 -0.152297,0.0456961 -0.259108,0.0958076 -0.413157,-0.0119847 -0.110245,-0.0771647 -0.171991,-0.202268 -0.111437,-0.388837 0.0549474,-0.169188 0.310481,-0.389118 0.619771,-0.0375661l0.0286652 0.0309079 -0.00777955 -0.259038c-0.0752023,-1.02669 -0.00476585,-2.12466 -0.083893,-3.15219 -0.0339917,-0.0222173 0.00126155,-0.00525645 -0.0557184,-0.0206754 -0.134004,-0.0363046 -0.468735,-0.0567697 -0.613463,-0.0567697l0.0313985 1.36927c0.00679834,0.292749 -0.0473081,0.314336 0.0210258,0.427525z"/>
   <path id="_349446256" class="fil2" d="M14.1221 7.57875l0.0335712 -0.0599235c0.0534756,-0.100363 0.101414,-0.204301 0.304243,-0.205773 0.500064,-0.0035043 0.402644,0.788468 -0.0918127,0.655234 -0.0409302,-0.0110736 -0.0634278,-0.0249506 -0.0899904,-0.0411405l-0.0855049 -0.0606244c0.0777254,0.222733 0.395215,0.867945 0.406709,1.02627 0.066021,0.0606244 0.465792,1.06103 0.538541,1.22496 0.100433,0.226518 -0.0161899,0.474903 -0.0756228,0.712144 -0.0583817,0.233036 -0.12244,0.48058 -0.184116,0.714807 0.106741,-0.061956 0.232475,-0.17143 0.410003,-0.107021 0.128678,0.0466072 0.239344,0.166454 0.210258,0.362835 -0.0326601,0.220561 -0.31791,0.493195 -0.649627,0.0939853 -0.00287353,-0.0035043 -0.00841032,-0.0107932 -0.0132463,-0.0156292l-0.00784963 1.93732c0.00960178,0.0665116 -0.0109334,-0.0171711 0.0105129,0.0474482 0.0217267,0.0656005 -0.0060274,0.0176617 0.0351131,0.0622364 0.0632877,-0.0258617 0.264995,-0.194349 0.328283,-0.247544 0.0864161,-0.0726792 0.237522,-0.216776 0.289035,-0.302491 0.0883084,-0.42395 -0.0392482,-1.13413 0.0398089,-1.60133 0.0637783,-0.376712 0.208506,-0.947002 0.324428,-1.31187 -0.108283,0.067633 -0.220421,0.166524 -0.401523,0.11368 -0.283007,-0.0826314 -0.323237,-0.506862 -0.0313985,-0.631265 0.167856,-0.0715578 0.292889,0.0143676 0.404607,0.0710672l-0.52943 -1.26484c-0.129309,-0.232756 -0.282026,-0.646263 -0.39087,-0.910207 -0.112138,-0.271653 -0.0991016,-0.249857 -0.0548073,-0.561249 0.0257917,-0.180892 0.0716279,-0.394724 0.0736604,-0.569729 -0.0631475,-0.0859255 -0.478898,-0.331507 -0.600918,-0.387576l-0.202058 1.25622z"/>
   <path id="_285663360" class="fil2" d="M9.25276 9.27245c0.12188,-0.0495508 0.261,-0.108493 0.404046,-0.0332909 0.116903,0.0614654 0.177598,0.156152 0.167786,0.339637 0.0249506,-0.0223574 0.0178719,-0.0150685 0.0419114,-0.0467474l0.0221472 -0.0326601c0.160777,-0.250698 0.833112,-1.50517 1.00202,-1.81284 0.104148,-0.189793 0.272144,-0.456751 0.348187,-0.650468 -0.140382,0.0639184 -0.2692,0.126996 -0.426824,0.014648 -0.118375,-0.0843836 -0.14662,-0.207174 -0.126225,-0.385333l-0.0878879 0.162319c-0.0266327,0.0520038 -0.0603441,0.113119 -0.0902708,0.166454 -0.0679134,0.120898 -0.116273,0.201077 -0.177458,0.314476 -0.118305,0.219089 -0.243619,0.449392 -0.35849,0.649347 -0.10625,0.184747 -0.675699,1.20772 -0.718942,1.31446z"/>
   <path id="_346198392" class="fil2" d="M8.05912 11.9807c0.0194138,0.15496 0.355757,0.776203 0.491864,0.90425 0.0514431,-0.0918828 0.371456,-1.79203 0.396757,-2.01609 -0.0485696,0.0289455 -0.0152087,0.00946161 -0.0529149,0.0384071 -0.243969,0.18755 -0.517936,0.147111 -0.583887,-0.229602l-0.251819 1.30304z"/>
   <path id="_345918704" class="fil2" d="M8.47753 10.3598c0.341529,-0.0501816 0.577929,0.0834024 0.468735,0.45654 0.0613253,-0.0470978 0.401803,-0.520599 0.47287,-0.621803 0.0305575,-0.0435935 0.0411405,-0.0647595 0.0719783,-0.106951l0.080669 -0.0857152c0.00364447,-0.00322396 0.0109334,-0.00918127 0.0167506,-0.0133163 0.0174514,-0.0682638 0.0559987,-0.10604 0.112768,-0.173323 -0.331857,0.118866 -0.590264,-0.00693852 -0.527117,-0.398089 -0.083893,0.0630073 -0.280905,0.355546 -0.355967,0.460465 -0.0791972,0.110736 -0.294642,0.367601 -0.340688,0.482192z"/>
   <path id="_284211528" class="fil2" d="M10.7752 6.03833l-0.0727493 0.551297c0.00644791,-0.0039949 0.0153488,-0.0187831 0.0184326,-0.0135266l0.066021 -0.0524944c0.0264224,-0.0210258 0.0492004,-0.0437337 0.0957375,-0.0611851 0.194559,-0.0728895 0.481631,0.00336413 0.438949,0.396477 0.0630073,-0.0689646 0.0324498,-0.0755527 0.047238,-0.251118l0.0943358 -0.626709c-0.00238292,-0.145008 0.0352533,-0.0745715 -0.0515132,-0.107021 -0.246983,0.0344122 -0.430608,0.10625 -0.636451,0.164282z"/>
   <circle id="_285601696" class="fil3 str1" cx="8.66383" cy="10.6514" r="0.333929"/>
   <circle id="_348816872" class="fil3 str1" cx="9.47747" cy="9.54057" r="0.333929"/>
   <circle id="_348816584" class="fil3 str1" cx="14.4738" cy="7.64688" r="0.333929"/>
   <circle id="_348405696" class="fil3 str1" cx="10.9789" cy="6.76487" r="0.333929"/>
   <circle id="_349446424" class="fil3 str1" cx="12.7318" cy="7.52848" r="0.333929"/>
   <circle id="_346957336" class="fil3 str1" cx="12.7696" cy="9.41366" r="0.380425"/>
   <circle id="_285601096" class="fil3 str1" cx="11.3632" cy="12.009" r="0.350825"/>
   <circle id="_348816104" class="fil3 str1" cx="15.1711" cy="11.7724" r="0.333929"/>
   <circle id="_285657120" class="fil3 str1" cx="15.5092" cy="10.2338" r="0.333929"/>
   <path id="_348815528" class="fil4" d="M20.8017 6.85743l-1.55703 0 0 -0.563562 3.80189 0 0 0.563562 -1.51883 0 0 7.17386 -0.726021 0 0 -7.17386zm2.87528 -0.563562l1.74816 0c0.694062,0 1.18761,0.167155 1.48057,0.501465 0.29296,0.33438 0.439439,0.82316 0.439439,1.46634 0,0.490322 -0.0796177,0.894718 -0.238853,1.21312 -0.159235,0.318401 -0.436215,0.519057 -0.83101,0.601829l1.18452 3.95467 -0.706888 0 -1.1368 -3.80189 -1.21312 0 0 3.80189 -0.726021 0 0 -7.73743zm1.70989 3.40064c0.464881,0 0.789659,-0.114661 0.974336,-0.343842 0.184677,-0.229321 0.27705,-0.592297 0.27705,-1.089 0,-0.503148 -0.0876075,-0.866123 -0.262682,-1.089 -0.175145,-0.222944 -0.498312,-0.33438 -0.96964,-0.33438l-1.00293 0 0 2.85622 0.983868 0zm4.39418 -3.40064l0.764148 0 1.64303 7.73743 -0.716419 0 -0.382109 -2.07286 -1.84361 0 -0.391641 2.07286 -0.706888 0 1.63349 -7.73743zm1.21312 5.13913l-0.821478 -4.17439 -0.821548 4.17439 1.64303 0zm3.92608 2.69383c-0.725951,0 -1.23386,-0.213342 -1.52367,-0.639955 -0.289666,-0.426684 -0.434603,-1.01898 -0.434603,-1.77682l0 -3.07587c0,-0.776903 0.144938,-1.37397 0.434603,-1.79105 0.289806,-0.417152 0.797719,-0.625728 1.52367,-0.625728 0.662313,0 1.1335,0.187901 1.41371,0.563632 0.280204,0.375731 0.420376,0.920159 0.420376,1.63342l0 0.468105 -0.687824 0 0 -0.449041c0,-0.369353 -0.0286652,-0.670233 -0.0859255,-0.902638 -0.0573304,-0.232475 -0.168837,-0.412316 -0.33438,-0.539732 -0.165543,-0.127346 -0.404326,-0.191054 -0.716419,-0.191054 -0.337464,0 -0.595451,0.070086 -0.77375,0.210188 -0.178299,0.140102 -0.299337,0.332768 -0.362975,0.577929 -0.0636381,0.245161 -0.0955272,0.558796 -0.0955272,0.940905l0 3.29558c0,0.598605 0.0907614,1.03482 0.272214,1.30865 0.181523,0.273826 0.501536,0.410774 0.960038,0.410774 0.452125,0 0.754616,-0.13856 0.907474,-0.41554 0.152788,-0.27705 0.229251,-0.698898 0.229251,-1.26568l0 -0.506231 0.687824 0 0 0.458503c0,0.738707 -0.136948,1.30865 -0.410774,1.70982 -0.273826,0.401242 -0.748308,0.601829 -1.42331,0.601829zm4.86222 0c-0.745084,0 -1.26099,-0.189443 -1.5475,-0.568398 -0.286582,-0.378885 -0.429838,-0.924995 -0.429838,-1.63819l0 -5.62637 0.706817 0 0 5.6455c0,0.509385 0.0907614,0.90425 0.272284,1.18445 0.181453,0.280204 0.514151,0.420306 0.998235,0.420306 0.46481,0 0.792813,-0.141714 0.983868,-0.425072 0.191054,-0.283358 0.286512,-0.67661 0.286512,-1.17969l0 -5.6455 0.697356 0 0 5.62637c0,0.70051 -0.148022,1.2434 -0.444205,1.62866 -0.296113,0.385263 -0.803957,0.577929 -1.52353,0.577929zm3.23825 -7.83295l0.725951 0 0 7.193 2.19706 0 0 0.544428 -2.92301 0 0 -7.73743zm4.86215 0l0.764148 0 1.64303 7.73743 -0.716419 0 -0.382039 -2.07286 -1.84368 0 -0.391641 2.07286 -0.706888 0 1.63349 -7.73743zm1.21319 5.13913l-0.821548 -4.17439 -0.821478 4.17439 1.64303 0z"/>
  </g>
 </g>
</svg>
