<?xml version="1.0" encoding="UTF-8"?>
<!DOCTYPE svg PUBLIC "-//W3C//DTD SVG 1.1//EN" "http://www.w3.org/Graphics/SVG/1.1/DTD/svg11.dtd">
<!-- Creator: CorelDRAW -->
<svg xmlns="http://www.w3.org/2000/svg" xml:space="preserve" width="13.5623mm" height="13.3759mm" style="shape-rendering:geometricPrecision; text-rendering:geometricPrecision; image-rendering:optimizeQuality; fill-rule:evenodd; clip-rule:evenodd"
viewBox="0 0 3.89535 3.84181"
 xmlns:xlink="http://www.w3.org/1999/xlink">
 <defs>
  <style type="text/css">
   <![CDATA[
    .str1 {stroke:#96989A;stroke-width:0.0574438}
    .str0 {stroke:#FEFEFE;stroke-width:0.151996}
    .fil0 {fill:none}
    .fil2 {fill:#96989A}
    .fil1 {fill:#FEFEFE}
   ]]>
  </style>
 </defs>
 <g id="Capa_x0020_1">
  <metadata id="CorelCorpID_0Corel-Layer"/>
  <ellipse class="fil0 str0" cx="1.94767" cy="1.9209" rx="1.87168" ry="1.8449"/>
  <path class="fil1" d="M2.03325 0.81754c-0.00201053,-0.0908186 0.0139588,-0.157396 0.0957588,-0.176352 0.182729,-0.0423648 0.22696,0.215931 0.0797319,0.26292 -0.111987,0.03573 -0.149469,-0.0469028 -0.179454,-0.0743897 0.00267113,0.126233 0.0423935,0.668559 -0.00591671,0.727812 -0.0242413,0.0725802 -0.398344,0.70113 -0.476812,0.843964 -0.0240402,0.0437434 -0.0488846,0.0765438 -0.0734131,0.124911 0.0497463,-0.0203925 0.0955003,-0.0577023 0.169804,-0.0225754 0.0432839,0.02045 0.0803925,0.0715462 0.0739301,0.13933 -0.00720919,0.0755385 -0.0966491,0.182125 -0.240373,0.0780086 -0.0164289,-0.0118909 -0.000315941,-0.00278602 -0.0241551,-0.0162279 0.0460699,0.176266 0.087889,0.35888 0.129421,0.537932l0.0926855 0.392858c0.0145046,0.0641072 0.0085304,0.0768598 0.041101,0.109114l0.0124079 0.0103686c0.0568119,0 0.0596841,0.00930589 0.113538,0.010943 0.0472762,0.00140737 0.0982001,-0.000344663 0.145907,-0.000344663 -0.0182384,-0.136659 -0.15843,-0.67528 -0.207803,-0.878574 -0.0194734,-0.0801053 -0.0700239,-0.215558 -0.0326281,-0.285323 0.0879751,-0.164146 0.486664,-0.821733 0.52584,-0.92404 -0.0624126,0.0187267 -0.106185,0.0392628 -0.169315,-0.00491144 -0.0451795,-0.0316228 -0.0704835,-0.0828913 -0.0456678,-0.159349 0.022518,-0.0693346 0.127238,-0.159464 0.253988,-0.0153949l0.0117472 0.0126663 -0.00318813 -0.106156c-0.0308186,-0.420747 -0.00195309,-0.870704 -0.0343801,-1.2918 -0.0139301,-0.00910484 0.000516994,-0.00215414 -0.0228339,-0.00847295 -0.0549162,-0.0148779 -0.192092,-0.0232647 -0.251403,-0.0232647l0.0128674 0.561139c0.00278602,0.119971 -0.0193873,0.128818 0.00861656,0.175203z"/>
  <path class="fil1" d="M2.73033 0.807745l0.0137578 -0.0245572c0.0219148,-0.0411297 0.0415606,-0.0837243 0.124682,-0.0843274 0.204931,-0.00143609 0.165007,0.323121 -0.0376257,0.268521 -0.0167736,-0.00453806 -0.0259933,-0.010225 -0.0368789,-0.0168597l-0.0350407 -0.0248444c0.0318526,0.0912781 0.161963,0.355692 0.166673,0.420575 0.027056,0.0248444 0.190886,0.434821 0.220699,0.502001 0.0411585,0.0928291 -0.00663475,0.194619 -0.0309909,0.291843 -0.0239253,0.0955003 -0.0501771,0.196946 -0.0754524,0.292934 0.0437434,-0.0253901 0.0952705,-0.0702537 0.168023,-0.0438583 0.0527334,0.0191001 0.0980852,0.0682145 0.0861656,0.148693 -0.0133844,0.0903878 -0.130282,0.202116 -0.266223,0.038516 -0.0011776,-0.00143609 -0.00344663,-0.00442317 -0.00542844,-0.00640498l-0.00321685 0.79393c0.0039349,0.0272571 -0.00448061,-0.00703686 0.00430828,0.0194447 0.00890378,0.0268837 -0.00247008,0.00723791 0.0143897,0.025505 0.0259359,-0.0105984 0.108597,-0.0796458 0.134533,-0.101446 0.0354141,-0.0297846 0.0973385,-0.0888368 0.118449,-0.123964 0.0361896,-0.173739 -0.0160843,-0.464777 0.016314,-0.656238 0.0261369,-0.15438 0.0854476,-0.38809 0.132954,-0.537616 -0.0443753,0.0277166 -0.0903303,0.0682432 -0.164548,0.0465869 -0.115979,-0.0338631 -0.132465,-0.207717 -0.0128674,-0.258698 0.0687889,-0.029325 0.120029,0.00588799 0.165811,0.029124l-0.216965 -0.518344c-0.0529919,-0.0953854 -0.115577,-0.264844 -0.160182,-0.373011 -0.045955,-0.111326 -0.0406127,-0.102394 -0.0224605,-0.230005 0.0105697,-0.0741312 0.0293538,-0.161762 0.0301867,-0.23348 -0.0258784,-0.035213 -0.196257,-0.135854 -0.246261,-0.158832l-0.0828052 0.514811z"/>
  <path class="fil1" d="M0.734849 1.50184c0.0499474,-0.0203064 0.10696,-0.0444615 0.165582,-0.0136429 0.0479081,0.0251891 0.0727812,0.0639924 0.0687602,0.139186 0.010225,-0.00916228 0.00732408,-0.0061752 0.0171757,-0.0191575l0.00907611 -0.0133844c0.065888,-0.102738 0.341417,-0.616831 0.410637,-0.74292 0.0426807,-0.0777789 0.111527,-0.187181 0.14269,-0.266568 -0.0575299,0.0261944 -0.110321,0.052044 -0.174916,0.00600287 -0.0485113,-0.0345811 -0.0600862,-0.0849019 -0.0517281,-0.157913l-0.0360172 0.0665199c-0.0109143,0.0213116 -0.0247295,0.0463571 -0.0369938,0.0682145 -0.0278315,0.0495452 -0.0476496,0.0824031 -0.0727238,0.128875 -0.0484825,0.0897846 -0.0998373,0.184165 -0.146912,0.266108 -0.0435424,0.0757109 -0.276908,0.494935 -0.294629,0.538679z"/>
  <path class="fil1" d="M0.245687 2.61171c0.00795596,0.0635041 0.145792,0.318095 0.20157,0.37057 0.0210819,-0.0376544 0.152226,-0.73439 0.162595,-0.826214 -0.0199043,0.0118621 -0.00623265,0.00387745 -0.021685,0.0157396 -0.0999809,0.0768598 -0.212255,0.0602872 -0.239282,-0.0940929l-0.103198 0.533997z"/>
  <path class="fil1" d="M0.417157 1.94743c0.139962,-0.0205649 0.236841,0.034179 0.192092,0.187094 0.0251316,-0.0193011 0.164663,-0.213346 0.193787,-0.254821 0.0125227,-0.017865 0.0168597,-0.026539 0.0294974,-0.0438296l0.0330589 -0.0351269c0.00149354,-0.00132121 0.00448061,-0.00376257 0.00686453,-0.00545716 0.00715175,-0.0279751 0.0229488,-0.0434562 0.0462135,-0.0710292 -0.135998,0.0487123 -0.241896,-0.00284347 -0.216017,-0.16314 -0.0343801,0.025821 -0.115117,0.145706 -0.145878,0.188703 -0.0324557,0.0453806 -0.120747,0.150646 -0.139617,0.197607z"/>
  <path class="fil1" d="M1.35875 0.176467l-0.0298133 0.225926c0.00264241,-0.00163715 0.00629009,-0.00769746 0.00755385,-0.00554332l0.027056 -0.0215127c0.0108281,-0.00861656 0.0201628,-0.0179225 0.0392341,-0.0250742 0.0797319,-0.0298708 0.197377,0.00137865 0.179885,0.16248 0.025821,-0.0282623 0.0132982,-0.0309622 0.0193585,-0.102911l0.0386597 -0.256831c-0.000976544,-0.0594256 0.0144471,-0.0305601 -0.0211106,-0.0438583 -0.101216,0.0141024 -0.176467,0.0435424 -0.260823,0.0673241z"/>
  <circle class="fil2 str1" cx="0.493503" cy="2.06695" r="0.136847"/>
  <circle class="fil2 str1" cx="0.826937" cy="1.61172" r="0.136847"/>
  <circle class="fil2 str1" cx="2.87448" cy="0.835667" r="0.136847"/>
  <circle class="fil2 str1" cx="1.44226" cy="0.474211" r="0.136847"/>
  <circle class="fil2 str1" cx="2.16058" cy="0.787146" r="0.136847"/>
  <circle class="fil2 str1" cx="2.17609" cy="1.55971" r="0.155902"/>
  <circle class="fil2 str1" cx="1.59974" cy="2.6233" r="0.143771"/>
  <circle class="fil2 str1" cx="3.16023" cy="2.52632" r="0.136847"/>
  <circle class="fil2 str1" cx="3.29881" cy="1.89579" r="0.136847"/>
 </g>
</svg>
