<?xml version="1.0" encoding="UTF-8"?>
<!DOCTYPE svg PUBLIC "-//W3C//DTD SVG 1.1//EN" "http://www.w3.org/Graphics/SVG/1.1/DTD/svg11.dtd">
<!-- Creator: CorelDRAW -->
<svg xmlns="http://www.w3.org/2000/svg" xml:space="preserve" width="110.53mm" height="18.0556mm" style="shape-rendering:geometricPrecision; text-rendering:geometricPrecision; image-rendering:optimizeQuality; fill-rule:evenodd; clip-rule:evenodd"
viewBox="0 0 91.4382 14.9368"
 xmlns:xlink="http://www.w3.org/1999/xlink">
 <defs>
  <style type="text/css">
   <![CDATA[
    .str2 {stroke:#FEFEFE;stroke-width:0.0630379}
    .str1 {stroke:#E6E7E8;stroke-width:0.165454}
    .str0 {stroke:#FEFEFE;stroke-width:0.656603}
    .fil2 {fill:#373435}
    .fil1 {fill:#FEFEFE}
    .fil0 {fill:black}
    .fil3 {fill:#FEFEFE;fill-rule:nonzero}
   ]]>
  </style>
 </defs>
 <g id="Capa_x0020_1">
  <metadata id="CorelCorpID_0Corel-Layer"/>
  <g id="_349613504">
   <ellipse id="_353734640" class="fil0 str0" cx="7.57145" cy="7.46778" rx="7.24311" ry="7.13949"/>
   <path id="_353734928" class="fil1" d="M7.90265 3.19789c-0.00785905,-0.351424 0.0540206,-0.609118 0.370534,-0.682414 0.707149,-0.163965 0.878394,0.835624 0.308571,1.01746 -0.433406,0.138319 -0.578426,-0.181503 -0.694409,-0.287807 0.0102581,0.488419 0.163965,2.5872 -0.0229153,2.81652 -0.093895,0.280858 -1.54153,2.71319 -1.84522,3.26597 -0.0930677,0.169342 -0.189196,0.296245 -0.284084,0.483373 0.192505,-0.0789214 0.369541,-0.223363 0.657099,-0.0873596 0.167522,0.0791696 0.311136,0.276887 0.286069,0.539131 -0.027879,0.292439 -0.374008,0.704833 -0.930098,0.301953 -0.063617,-0.0459961 -0.0012409,-0.0107545 -0.0934814,-0.0627897 0.178194,0.682083 0.340007,1.38882 0.500746,2.08166l0.358704 1.52027c0.0561715,0.248181 0.033008,0.297486 0.159084,0.422321l0.0479816 0.0401225c0.219805,0 0.231056,0.0360689 0.439445,0.0422734 0.182909,0.0055427 0.379964,-0.00132363 0.564528,-0.00132363 -0.0704833,-0.52879 -0.613089,-2.61309 -0.804188,-3.39991 -0.0752814,-0.309978 -0.27093,-0.834135 -0.126241,-1.10416 0.340504,-0.63526 1.88336,-3.18002 2.03492,-3.57587 -0.24148,0.0725515 -0.410822,0.151969 -0.655197,-0.0189445 -0.174885,-0.122353 -0.27275,-0.320815 -0.176705,-0.616811 0.0871114,-0.268283 0.492308,-0.61706 0.982878,-0.0594806l0.045417 0.0489743 -0.0122436 -0.410739c-0.119292,-1.62823 -0.00761087,-3.36955 -0.133108,-4.99902 -0.0538552,-0.0353244 0.00198544,-0.00843814 -0.0883523,-0.0329253 -0.212525,-0.0574952 -0.743301,-0.0900068 -0.972951,-0.0900068l0.0498016 2.17158c0.0107545,0.464263 -0.0749505,0.498512 0.0334217,0.677947z"/>
   <path id="_353734232" class="fil1" d="M10.6002 3.16008l0.0532761 -0.0950532c0.084795,-0.159166 0.160821,-0.324041 0.482463,-0.326275 0.79302,-0.00562543 0.638569,1.25033 -0.145599,1.03905 -0.0648579,-0.0175381 -0.100513,-0.0396262 -0.142704,-0.0651888l-0.135589 -0.0962113c0.12318,0.353326 0.626739,1.37649 0.645021,1.62765 0.104649,0.0960459 0.738668,1.68258 0.853989,1.94259 0.159332,0.3592 -0.0256453,0.753145 -0.119954,1.12939 -0.0925714,0.369624 -0.19416,0.762163 -0.291943,1.13369 0.169259,-0.0983622 0.368714,-0.272006 0.650316,-0.169838 0.204004,0.0739578 0.379551,0.264064 0.333389,0.575531 -0.051787,0.349769 -0.504137,0.782017 -1.03028,0.148908 -0.00454998,-0.0055427 -0.013319,-0.0170417 -0.0209299,-0.0246526l-0.0124918 3.07231c0.0152217,0.105559 -0.0173726,-0.0272171 0.0166281,0.0752814 0.0345798,0.10407 -0.00951359,0.0279617 0.0557579,0.0986931 0.100348,-0.0410325 0.420252,-0.30824 0.520517,-0.392622 0.137161,-0.115321 0.376738,-0.34373 0.45839,-0.47965 0.140139,-0.672404 -0.0622106,-1.79873 0.0632033,-2.53955 0.101175,-0.597453 0.330659,-1.50191 0.514478,-2.0805 -0.171658,0.107297 -0.349604,0.264064 -0.636749,0.180179 -0.448793,-0.131039 -0.512658,-0.803691 -0.0497188,-1.00108 0.266132,-0.113501 0.464429,0.0228326 0.641547,0.112757l-0.839595 -2.00588c-0.204997,-0.36921 -0.447221,-1.02499 -0.619955,-1.4435 -0.177697,-0.430924 -0.157098,-0.396262 -0.0867805,-0.890058 0.0408671,-0.286979 0.113584,-0.626077 0.116728,-0.903625 -0.1001,-0.136251 -0.759433,-0.525729 -0.952931,-0.614578l-0.320484 1.99223z"/>
   <path id="_353734376" class="fil1" d="M2.87798 5.84606c0.19325,-0.0785905 0.413882,-0.171989 0.640802,-0.052697 0.185391,0.0974522 0.281685,0.247601 0.266132,0.538469 0.0395434,-0.0353244 0.0283753,-0.0237426 0.0664297,-0.0740405l0.0351589 -0.051787c0.254881,-0.397585 1.32123,-2.38708 1.58902,-2.87501 0.165206,-0.30096 0.431586,-0.724274 0.552202,-1.03152 -0.222618,0.101258 -0.426871,0.201357 -0.676871,0.0231635 -0.187707,-0.133769 -0.232462,-0.328591 -0.200116,-0.611103l-0.139477 0.257363c-0.0422734,0.0825614 -0.0956323,0.179517 -0.143117,0.263981 -0.10771,0.191844 -0.184398,0.318912 -0.281437,0.498843 -0.187625,0.34737 -0.386334,0.712609 -0.568582,1.0297 -0.168432,0.293101 -1.07156,1.91529 -1.14014,2.08463z"/>
   <path id="_353734112" class="fil1" d="M0.984946 10.1411c0.0308571,0.245864 0.56428,1.23098 0.780197,1.43415 0.081486,-0.145765 0.588933,-2.842 0.629221,-3.19748 -0.0771014,0.0459961 -0.024239,0.015139 -0.0839678,0.0610524 -0.386996,0.297403 -0.821395,0.233207 -0.926044,-0.364164l-0.399405 2.06643z"/>
   <path id="_353733872" class="fil1" d="M1.64858 7.5705c0.541695,-0.0795832 0.916531,0.132198 0.743384,0.723943 0.0972868,-0.0746196 0.637245,-0.825614 0.749919,-0.986104 0.0484779,-0.0690769 0.0651888,-0.102747 0.11408,-0.16959l0.127978 -0.13592c0.00587361,-0.00512907 0.0173726,-0.0145599 0.026638,-0.0211781 0.0277135,-0.108289 0.0887659,-0.168101 0.178773,-0.274819 -0.526308,0.188535 -0.936054,-0.0110027 -0.835955,-0.631371 -0.133025,0.099934 -0.445484,0.563949 -0.564528,0.730313 -0.125579,0.175546 -0.467241,0.582893 -0.540289,0.764727z"/>
   <path id="_346244856" class="fil1" d="M5.29245 0.717159l-0.115487 0.874257c0.0103409,-0.00636997 0.0244044,-0.0297817 0.0292853,-0.021509l0.104732 -0.0833059c0.0419425,-0.0332562 0.0780114,-0.0692424 0.151804,-0.0969559 0.308488,-0.115569 0.763817,0.00537725 0.696147,0.628807 0.099934,-0.109448 0.0514561,-0.119871 0.0748678,-0.398247l0.149653 -0.993963c-0.00380544,-0.229898 0.0559234,-0.118217 -0.0817341,-0.169673 -0.391629,0.054517 -0.68291,0.168515 -1.00927,0.26059z"/>
   <circle id="_349614008" class="fil2 str1" cx="1.94404" cy="8.03296" r="0.529578"/>
   <circle id="_285651656" class="fil2 str1" cx="3.23438" cy="6.27129" r="0.529578"/>
   <circle id="_285651632" class="fil2 str1" cx="11.1581" cy="3.2681" r="0.529578"/>
   <circle id="_285651608" class="fil0 str1" cx="5.61558" cy="1.86932" r="0.529578"/>
   <circle id="_349614272" class="fil2 str1" cx="8.39537" cy="3.08033" r="0.529578"/>
   <circle id="_349614416" class="fil0 str1" cx="8.45541" cy="6.07003" r="0.603315"/>
   <circle id="_349613744" class="fil0 str1" cx="6.22501" cy="10.186" r="0.556373"/>
   <circle id="_280176768" class="fil0 str1" cx="12.2639" cy="9.81068" r="0.529578"/>
   <circle id="_349613168" class="fil2 str1" cx="12.8001" cy="7.37062" r="0.529578"/>
  </g>
  <path class="fil3 str2" d="M21.3237 2.20318l-2.40843 0 0 -1.94458 7.40364 0 0 1.94458 -2.37269 0 0 12.5059 -2.62252 0 0 -12.5059zm6.15488 -1.94458l3.47883 0c1.52234,0 2.65818,0.288386 3.40744,0.86524 0.749257,0.576772 1.12393,1.56693 1.12393,2.97039 0,0.915786 -0.133769,1.66207 -0.401391,2.23892 -0.267621,0.576854 -0.728493,0.996031 -1.38261,1.2577l2.01589 7.11823 -2.64031 0 -1.73048 -6.61873 -1.24884 0 0 6.61873 -2.62244 0 0 -14.4505zm3.46096 6.19053c0.749257,0 1.28152,-0.172486 1.59671,-0.517374 0.315189,-0.344971 0.472784,-0.90983 0.472784,-1.69483 0,-0.76117 -0.139808,-1.3142 -0.41926,-1.65917 -0.279534,-0.344888 -0.782017,-0.517374 -1.50753,-0.517374l-0.981223 0 0 4.38874 0.838519 0zm8.70593 -6.19053l2.81875 0 2.89015 14.4505 -2.44408 0 -0.570898 -3.33613 -2.51548 0 -0.588684 3.33613 -2.47982 0 2.89006 -14.4505zm2.40843 9.4374l-0.981141 -6.06562 -0.981223 6.06562 1.96236 0zm8.6347 5.20931c-1.4986,0 -2.56007,-0.41926 -3.18449,-1.2577 -0.624422,-0.838519 -0.936634,-2.02491 -0.936634,-3.55916l0 -5.15579c0,-1.58182 0.309233,-2.78301 0.927699,-3.60366 0.618466,-0.82065 1.68291,-1.23098 3.19342,-1.23098 1.41529,0 2.42026,0.356801 3.01498,1.0704 0.594641,0.713602 0.891961,1.74239 0.891961,3.08637l0 1.21311 -2.53326 0 0 -1.24884c0,-0.511417 -0.0238253,-0.912808 -0.0713933,-1.20417 -0.0475679,-0.291447 -0.169507,-0.529286 -0.365735,-0.713602 -0.196228,-0.184398 -0.502483,-0.276556 -0.918765,-0.276556 -0.428112,0 -0.749257,0.0981141 -0.963354,0.294342 -0.214097,0.196311 -0.353823,0.457893 -0.41926,0.784995 -0.0653542,0.327102 -0.0981141,0.752235 -0.0981141,1.27557l0 6.26193c0,0.82065 0.107049,1.41231 0.321146,1.77507 0.214097,0.362757 0.600597,0.544095 1.15958,0.544095 0.404369,0 0.704667,-0.0951359 0.900978,-0.285408 0.196228,-0.190272 0.321063,-0.443085 0.374587,-0.758192 0.0535243,-0.315189 0.0803278,-0.734449 0.0803278,-1.25778l0 -1.30229 2.53326 0 0 1.15958c0,1.39155 -0.291364,2.47089 -0.874175,3.23801 -0.582728,0.767126 -1.59373,1.15065 -3.03277,1.15065zm5.74455 -14.6467l2.62244 0 0 6.35102 2.87228 -6.35102 2.51548 0 -2.76523 6.44029 3.05064 8.01019 -2.62244 0 -2.40843 -6.5652 -0.642291 1.08827 0 5.47693 -2.62244 0 0 -14.4505zm13.4514 14.6467c-1.04658,0 -1.86723,-0.190272 -2.46195,-0.570898 -0.594641,-0.380544 -1.01092,-0.921743 -1.24876,-1.62343 -0.237922,-0.701689 -0.356801,-1.59373 -0.356801,-2.67605l0 -9.77633 2.569 0 0 10.0797c0,0.83248 0.0981141,1.47477 0.294342,1.92671 0.196228,0.451937 0.597619,0.677947 1.20417,0.677947 0.618466,0 1.02581,-0.22601 1.22204,-0.677947 0.196228,-0.451937 0.294425,-1.09423 0.294425,-1.92671l0 -10.0797 2.55113 0 0 9.77633c0,1.0704 -0.118961,1.95947 -0.356801,2.66711 -0.237922,0.707646 -0.654204,1.25182 -1.24884,1.63237 -0.594641,0.380626 -1.41529,0.570898 -2.46195,0.570898zm6.13701 -14.6467l2.62244 0 0 12.6486 3.51457 0 0 1.80187 -6.13701 0 0 -14.4505zm9.66928 0l2.81875 0 2.89015 14.4505 -2.44408 0 -0.570898 -3.33613 -2.51548 0 -0.588684 3.33613 -2.47982 0 2.89006 -14.4505zm2.40843 9.4374l-0.981141 -6.06562 -0.981223 6.06562 1.96236 0z"/>
 </g>
</svg>
