<?xml version="1.0" encoding="UTF-8"?>
<!DOCTYPE svg PUBLIC "-//W3C//DTD SVG 1.1//EN" "http://www.w3.org/Graphics/SVG/1.1/DTD/svg11.dtd">
<!-- Creator: CorelDRAW -->
<svg xmlns="http://www.w3.org/2000/svg" xml:space="preserve" width="110.5mm" height="19.7042mm" style="shape-rendering:geometricPrecision; text-rendering:geometricPrecision; image-rendering:optimizeQuality; fill-rule:evenodd; clip-rule:evenodd"
viewBox="0 0 92.7723 16.543"
 xmlns:xlink="http://www.w3.org/1999/xlink">
 <defs>
  <style type="text/css">
   <![CDATA[
    .str0 {stroke:#E6E7E8;stroke-width:0.167914}
    .fil2 {fill:#373435}
    .fil1 {fill:#FEFEFE}
    .fil0 {fill:black}
    .fil3 {fill:#FEFEFE;fill-rule:nonzero}
   ]]>
  </style>
 </defs>
 <g id="Capa_x0020_1">
  <metadata id="CorelCorpID_0Corel-Layer"/>
  <g id="_284805912">
   <g>
    <ellipse id="_353734640" class="fil0" cx="8.15528" cy="8.03861" rx="8.15528" ry="8.03861"/>
    <path id="_353734928" class="fil1" d="M8.52818 3.231c-0.00881548,-0.395689 0.0608688,-0.685761 0.417182,-0.768374 0.796248,-0.184621 0.989013,0.940906 0.347414,1.14568 -0.487874,0.155656 -0.651254,-0.204435 -0.781807,-0.324158 0.0115861,0.550002 0.184621,2.91306 -0.0257748,3.17122 -0.105702,0.316182 -1.73573,3.05494 -2.07768,3.67732 -0.104778,0.190582 -0.212999,0.333561 -0.319876,0.544293 0.216777,-0.0889944 0.416091,-0.251535 0.739913,-0.0984815 0.188567,0.0891623 0.350268,0.311816 0.322143,0.607093 -0.0313999,0.329279 -0.421128,0.793645 -1.04736,0.340026 -0.0715313,-0.0518854 -0.00134331,-0.0121738 -0.105198,-0.0707757 0.200657,0.768038 0.382844,1.56378 0.563771,2.34391l0.403917 1.71171c0.0632196,0.279325 0.037109,0.33482 0.17908,0.475448l0.0541522 0.0451689c0.247421,0 0.260015,0.0406352 0.494674,0.0476036 0.205946,0.00621282 0.427845,-0.00151123 0.635638,-0.00151123 -0.0793393,-0.595339 -0.690294,-2.94219 -0.905476,-3.82802 -0.0847965,-0.349093 -0.305016,-0.939227 -0.142055,-1.24323 0.383264,-0.715229 2.1205,-3.58051 2.2911,-4.02616 -0.271853,0.0816062 -0.462603,0.17102 -0.737646,-0.021409 -0.196879,-0.137773 -0.307115,-0.361183 -0.198978,-0.694408 0.0980617,-0.302077 0.554284,-0.694828 1.10664,-0.0669977l0.0511298 0.0550758 -0.0137689 -0.462435c-0.134331,-1.83328 -0.00856361,-3.79385 -0.149947,-5.62856 -0.0606169,-0.0397956 0.0023508,-0.00948714 -0.0994051,-0.037025 -0.239277,-0.0648148 -0.836883,-0.10142 -1.09547,-0.10142l0.0560833 2.44508c0.0121738,0.522716 -0.0843768,0.561336 0.0376127,0.763337z"/>
    <path id="_353734232" class="fil1" d="M11.5655 3.18843l0.0599453 -0.107045c0.095543,-0.179248 0.181095,-0.364793 0.543286,-0.367396 0.892882,-0.00629677 0.718924,1.40779 -0.163968,1.16994 -0.0730426,-0.0197299 -0.113258,-0.0445812 -0.160694,-0.0734623l-0.152634 -0.108221c0.138697,0.397788 0.705574,1.54985 0.726228,1.83253 0.117876,0.108137 0.831678,1.89457 0.961559,2.18733 0.179332,0.404421 -0.0288812,0.847965 -0.135087,1.27161 -0.104191,0.416091 -0.21854,0.858124 -0.328692,1.2764 0.190582,-0.110655 0.415083,-0.306191 0.732189,-0.19117 0.229622,0.0832853 0.427341,0.297292 0.375372,0.64798 -0.0583501,0.393842 -0.567633,0.880541 -1.15995,0.167662 -0.00520533,-0.00621282 -0.0150283,-0.0191422 -0.0236759,-0.0277898l-0.0140208 3.4592c0.0171272,0.118883 -0.019562,-0.0305603 0.0187224,0.0847965 0.0388721,0.117204 -0.0106625,0.0315678 0.0627998,0.111159 0.113006,-0.0461763 0.473181,-0.347078 0.586104,-0.442033 0.154313,-0.129797 0.424067,-0.387042 0.516084,-0.540095 0.157755,-0.757124 -0.0701041,-2.02521 0.0711116,-2.85941 0.11393,-0.672663 0.372349,-1.69098 0.579303,-2.3424 -0.193353,0.12073 -0.39359,0.297208 -0.716909,0.20284 -0.505421,-0.147512 -0.577288,-0.904972 -0.0560833,-1.12721 0.299726,-0.127783 0.522968,0.0256908 0.72245,0.127027l-0.945439 -2.25861c-0.230798,-0.415587 -0.50349,-1.15399 -0.697934,-1.62524 -0.200153,-0.485103 -0.176897,-0.446147 -0.0977259,-1.00211 0.0460084,-0.32315 0.127866,-0.704987 0.131393,-1.01739 -0.11267,-0.153473 -0.855018,-0.591981 -1.07289,-0.692057l-0.360847 2.24316z"/>
    <path id="_353734376" class="fil1" d="M2.87074 6.21265c0.217616,-0.0884067 0.466045,-0.193605 0.721526,-0.0593576 0.208717,0.109732 0.317105,0.278821 0.299642,0.606337 0.0444972,-0.0397956 0.0319036,-0.0267823 0.0747217,-0.0833693l0.0396277 -0.0583501c0.286965,-0.447659 1.48755,-2.68763 1.78912,-3.23704 0.186049,-0.338934 0.485943,-0.815558 0.621785,-1.16146 -0.250612,0.114014 -0.480654,0.226684 -0.762077,0.0261106 -0.211404,-0.150619 -0.261862,-0.369998 -0.225424,-0.688027l-0.157 0.289736c-0.0475196,0.0930243 -0.107633,0.202084 -0.161113,0.297292 -0.121234,0.215937 -0.207626,0.359 -0.316938,0.561588 -0.211152,0.391156 -0.434897,0.802377 -0.640172,1.15945 -0.189659,0.329951 -1.20655,2.15652 -1.2837,2.3471z"/>
    <path id="_353734112" class="fil1" d="M0.739325 11.0486c0.0347582,0.276806 0.635302,1.38605 0.878442,1.61474 0.091765,-0.164136 0.663092,-3.19994 0.708429,-3.60007 -0.0868115,0.0517175 -0.027286,0.0169593 -0.0945355,0.0686768 -0.435737,0.33482 -0.92487,0.262617 -1.04266,-0.409962l-0.449674 2.32662z"/>
    <path id="_353733872" class="fil1" d="M1.48646 8.15424c0.609947,-0.0895821 1.032,0.148856 0.837051,0.815138 0.109564,-0.0840409 0.717496,-0.929572 0.844355,-1.11025 0.054656,-0.0778281 0.0733784,-0.115693 0.128454,-0.191002l0.14407 -0.153054c0.0066326,-0.00579303 0.019562,-0.0163716 0.0299726,-0.0237598 0.031232,-0.121906 0.0999928,-0.189323 0.201329,-0.309465 -0.592568,0.212243 -1.05391,-0.0124256 -0.941242,-0.710864 -0.149779,0.112502 -0.501643,0.634883 -0.635638,0.822191 -0.141384,0.197719 -0.526074,0.656376 -0.608352,0.861063z"/>
    <path id="_346244856" class="fil1" d="M5.58918 0.437836l-0.129965 0.984395c0.01167,-0.00713634 0.0275379,-0.0335828 0.033079,-0.0241796l0.117876 -0.0938639c0.0471838,-0.0374448 0.087819,-0.077996 0.170852,-0.109144 0.347414,-0.130217 0.860055,0.00596094 0.783906,0.707925 0.112502,-0.123165 0.0578464,-0.134919 0.0842928,-0.44833l0.168418 -1.11915c-0.00428181,-0.258839 0.0629677,-0.133072 -0.0920168,-0.191002 -0.440942,0.0613725 -0.768878,0.189659 -1.13644,0.293346z"/>
    <circle id="_349614008" class="fil2 str0" cx="1.81917" cy="8.67497" r="0.596271"/>
    <circle id="_285651656" class="fil2 str0" cx="3.27201" cy="6.69145" r="0.596271"/>
    <circle id="_285651632" class="fil2 str0" cx="12.1936" cy="3.31003" r="0.596271"/>
    <circle id="_285651608" class="fil0 str0" cx="5.95309" cy="1.7351" r="0.596271"/>
    <circle id="_349614272" class="fil2 str0" cx="9.08296" cy="3.09862" r="0.596271"/>
    <circle id="_349614416" class="fil0 str0" cx="9.15056" cy="6.46483" r="0.679295"/>
    <circle id="_349613744" class="fil0 str0" cx="6.63927" cy="11.0991" r="0.626441"/>
    <circle id="_280176768" class="fil0 str0" cx="13.4387" cy="10.6766" r="0.596271"/>
    <circle id="_349613168" class="fil2 str0" cx="14.0425" cy="7.92922" r="0.596271"/>
   </g>
   <path id="_353730320" class="fil3" d="M22.8913 3.12009l-2.41569 0 0 -2.591 8.31862 0 0 2.591 -2.39613 0 0 13.1892 -3.5068 0 0 -13.1892zm7.26664 -2.591l4.34444 0c1.7275,0 3.03269,0.305184 3.91592,0.915635 0.883143,0.610451 1.32467,1.69492 1.32467,3.25342 0,1.05206 -0.136346,1.88979 -0.409122,2.51317 -0.272692,0.623464 -0.779289,1.1105 -1.51954,1.46119l2.1624 7.63681 -3.6041 0 -1.73388 -7.07195 -0.993463 0 0 7.07195 -3.48732 0 0 -15.7802zm4.46139 6.7017c0.701377,0 1.19169,-0.185125 1.47093,-0.555207 0.279241,-0.370166 0.418861,-0.925374 0.418861,-1.66571 0,-0.714306 -0.129965,-1.25004 -0.389812,-1.60727 -0.259679,-0.357069 -0.707757,-0.535645 -1.34415,-0.535645l-1.12989 0 0 4.36383 0.974069 0zm9.4486 -6.7017l3.97436 0 2.94168 15.7802 -3.21454 0 -0.52599 -3.33133 -2.3183 0 -0.545468 3.33133 -3.29237 0 2.98064 -15.7802zm2.84438 10.3643l-0.837723 -6.15623 -0.837723 6.15623 1.67545 0zm10.1889 5.64963c-1.71449,0 -2.93203,-0.451269 -3.65288,-1.35397 -0.720771,-0.902621 -1.0812,-2.20471 -1.0812,-3.90601l0 -5.68876c0,-1.74034 0.357153,-3.05536 1.07146,-3.94497 0.71439,-0.889776 1.93512,-1.33458 3.66262,-1.33458 1.64942,0 2.81835,0.396193 3.50671,1.18841 0.688279,0.792218 1.0325,1.91573 1.0325,3.37037l0 1.36371 -3.40932 0 0 -1.57806c0,-0.610367 -0.0649827,-1.07801 -0.19478,-1.40259 -0.129965,-0.324746 -0.441698,-0.487034 -0.935113,-0.487034 -0.493583,0 -0.818329,0.171944 -0.974237,0.516251 -0.15574,0.34414 -0.233736,0.821435 -0.233736,1.4318l0 7.42264c0,0.623381 0.0811864,1.10068 0.243559,1.43189 0.162373,0.331126 0.48376,0.496689 0.964414,0.496689 0.480486,0 0.788944,-0.165563 0.92529,-0.496689 0.13643,-0.33121 0.204603,-0.808506 0.204603,-1.43189l0 -1.65605 3.40932 0 0 1.36371c0,1.48058 -0.344224,2.63331 -1.0325,3.4581 -0.688363,0.824709 -1.8573,1.23702 -3.50671,1.23702zm11.0072 0c-1.18186,0 -2.11706,-0.191506 -2.80534,-0.574769 -0.688447,-0.383012 -1.17212,-0.948042 -1.45136,-1.69476 -0.279241,-0.746881 -0.418861,-1.69828 -0.418861,-2.85412l0 -10.8903 3.4482 0 0 11.4162c0,0.636478 0.0811864,1.14307 0.243475,1.51971 0.162457,0.376631 0.490309,0.564863 0.983892,0.564863 0.493583,0 0.818161,-0.188232 0.974069,-0.564863 0.155824,-0.376631 0.233736,-0.883227 0.233736,-1.51971l0 -11.4162 3.46776 0 0 10.8903c0,1.15584 -0.142895,2.10724 -0.428516,2.85412 -0.28579,0.746713 -0.76955,1.31174 -1.45136,1.69476 -0.681899,0.383264 -1.61382,0.574769 -2.79568,0.574769zm6.89648 -16.014l3.48732 0 0 13.423 3.62358 0 0 2.35726 -7.1109 0 0 -15.7802zm10.8514 0l3.97436 0 2.94168 15.7802 -3.21446 0 -0.52599 -3.33133 -2.3183 0 -0.545552 3.33133 -3.29237 0 2.98064 -15.7802zm2.84438 10.3643l-0.837639 -6.15623 -0.837723 6.15623 1.67536 0z"/>
  </g>
 </g>
</svg>
